<?xml version="1.0" encoding="UTF-8"?>
<svg xmlns="http://www.w3.org/2000/svg" xmlns:xlink="http://www.w3.org/1999/xlink" width="24px" height="24px" viewBox="0 0 24 24" version="1.1">
<g id="surface1">
<path style=" stroke:none;fill-rule:nonzero;fill:rgb(0%,0%,0%);fill-opacity:1;" d="M 22.375 9.933594 C 21.195312 9.148438 18.296875 6.796875 16.484375 6.648438 C 14.671875 6.496094 13.324219 7.375 12.800781 7.429688 C 12.277344 7.488281 11.417969 6.832031 10.632812 6.554688 C 9.847656 6.273438 8.671875 6.253906 6.707031 7 C 4.746094 7.75 0.257812 10.566406 0.0546875 10.867188 C -0.152344 11.164062 0.257812 11.40625 0.855469 11.539062 C 1.457031 11.667969 1.621094 11.957031 2.652344 12.863281 C 2.96875 13.144531 4.054688 14.695312 4.875 15.535156 C 5.699219 16.375 7.585938 17.941406 8.089844 17.996094 C 8.597656 18.054688 10.707031 17.195312 12.074219 17.140625 C 13.4375 17.082031 15.121094 17.996094 16.242188 17.941406 C 17.363281 17.886719 17.90625 17.15625 19.402344 15.628906 C 20.898438 14.097656 24 11.277344 24 11.035156 C 24 10.792969 23.550781 10.71875 22.375 9.933594 Z M 1.746094 10.601562 C 1.675781 10.492188 8 6.863281 9.273438 7.03125 C 10.550781 7.199219 11.558594 8.261719 12.710938 8.261719 C 13.859375 8.261719 15.289062 7.339844 16.296875 7.324219 C 17.308594 7.308594 22.160156 10.683594 22.171875 10.808594 C 22.1875 10.9375 19.847656 11.59375 17.699219 11.648438 C 15.554688 11.707031 14.601562 11.300781 14.210938 11.242188 C 13.816406 11.1875 13.242188 11.609375 11.824219 11.578125 C 10.410156 11.550781 9.890625 11.339844 9.652344 11.328125 C 9.414062 11.3125 7.507812 11.71875 5.742188 11.734375 C 3.976562 11.746094 1.984375 10.964844 1.746094 10.601562 Z M 17.140625 16.578125 C 16.71875 17.027344 16.382812 17.152344 15.511719 17.054688 C 14.644531 16.957031 13.632812 16.128906 12.035156 16.226562 C 10.4375 16.324219 9.359375 17.027344 8.40625 16.972656 C 7.453125 16.914062 5.65625 15.109375 4.84375 14.171875 C 4.03125 13.230469 2.894531 11.945312 2.9375 11.859375 C 2.984375 11.761719 3.933594 12.40625 6.09375 12.292969 C 8.25 12.179688 8.839844 12.113281 8.839844 12.113281 C 8.839844 12.113281 10.226562 12.671875 12.234375 12.585938 C 14.238281 12.503906 14.492188 12.363281 14.53125 12.363281 C 14.574219 12.363281 16.664062 12.488281 18.851562 12.097656 C 21.039062 11.707031 22.339844 11.371094 22.4375 11.410156 C 22.539062 11.453125 17.558594 16.128906 17.140625 16.578125 Z M 8.390625 7.882812 C 8.292969 7.882812 5 9.503906 4.929688 9.648438 C 4.859375 9.789062 5.125 9.957031 5.25 9.941406 C 5.378906 9.929688 8.726562 8.347656 8.769531 8.332031 C 8.8125 8.316406 8.488281 7.882812 8.390625 7.882812 Z M 7.761719 12.671875 C 7.066406 13.199219 6.519531 14.582031 6.484375 14.710938 C 6.449219 14.835938 6.808594 14.949219 6.84375 14.933594 C 6.878906 14.917969 6.96875 14.605469 7.191406 14.050781 C 7.417969 13.5 8.003906 12.972656 8.039062 12.925781 C 8.074219 12.875 7.800781 12.640625 7.761719 12.671875 Z M 9.246094 12.992188 C 8.734375 13.589844 8.398438 15.304688 8.363281 15.464844 C 8.328125 15.625 8.519531 15.523438 8.574219 15.523438 C 8.628906 15.523438 8.617188 15.382812 8.769531 14.820312 C 8.925781 14.261719 9.535156 13.085938 9.582031 13.035156 C 9.632812 12.988281 9.300781 12.929688 9.246094 12.996094 Z M 10.707031 13.085938 C 10.691406 13.148438 10.542969 14.898438 10.558594 14.949219 C 10.570312 14.996094 10.699219 14.976562 10.734375 14.941406 C 10.765625 14.90625 11.011719 13.140625 10.984375 13.097656 C 10.957031 13.058594 10.714844 13.039062 10.703125 13.085938 Z M 12.988281 13.210938 C 12.960938 13.175781 12.691406 13.179688 12.675781 13.191406 C 12.625 13.226562 12.6875 13.40625 12.855469 13.839844 C 13.023438 14.277344 12.96875 14.898438 12.96875 14.96875 C 12.96875 15.039062 13.082031 14.988281 13.136719 14.949219 C 13.191406 14.90625 13.234375 14.6875 13.214844 14.191406 C 13.191406 13.695312 13.015625 13.246094 12.988281 13.210938 Z M 14.945312 13.085938 C 14.847656 13.085938 14.722656 13.128906 14.65625 13.261719 C 14.59375 13.394531 14.828125 13.625 15.078125 13.96875 C 15.332031 14.3125 15.4375 14.996094 15.476562 15.058594 C 15.519531 15.121094 15.582031 15.082031 15.617188 15.019531 C 15.652344 14.953125 15.675781 14.667969 15.476562 13.996094 C 15.28125 13.324219 14.996094 13.085938 14.945312 13.085938 Z M 16.796875 12.980469 C 16.726562 12.996094 16.535156 13.164062 16.53125 13.253906 C 16.523438 13.34375 16.703125 13.535156 16.921875 13.757812 C 17.140625 13.980469 17.210938 14.710938 17.238281 14.816406 C 17.265625 14.921875 17.300781 14.886719 17.382812 14.828125 C 17.46875 14.773438 17.449219 14.589844 17.363281 13.945312 C 17.277344 13.304688 16.886719 12.960938 16.796875 12.980469 Z M 18.34375 12.8125 C 18.4375 12.898438 18.484375 13.4375 18.519531 13.546875 C 18.554688 13.660156 18.695312 13.519531 18.765625 13.441406 C 18.835938 13.367188 18.707031 12.785156 18.675781 12.757812 C 18.640625 12.730469 18.316406 12.789062 18.34375 12.8125 Z M 18.34375 12.8125 "/>
</g>
</svg>
